PathFileType	4	(X/Y/Z)	/Users/visionmauri/Downloads/Videos/OAW02-top_Sports2D/OAW02-top_Sports2D_px_person00.trc
DataRate	CameraRate	NumFrames	NumMarkers	Units	OrigDataRate	OrigDataStartFrame	OrigNumFrames
30.0	30.0	5	22	m	30.0	1888	2158
Frame#	Time	Hip			RHip			RKnee			RAnkle			RBigToe			RSmallToe			RHeel			LHip			LKnee			LAnkle			LBigToe			LSmallToe			LHeel			Neck			Head			Nose			RShoulder			RElbow			RWrist			LShoulder			LElbow			LWrist			
		X1	Y1	Z1	X2	Y2	Z2	X3	Y3	Z3	X4	Y4	Z4	X5	Y5	Z5	X6	Y6	Z6	X7	Y7	Z7	X8	Y8	Z8	X9	Y9	Z9	X10	Y10	Z10	X11	Y11	Z11	X12	Y12	Z12	X13	Y13	Z13	X14	Y14	Z14	X15	Y15	Z15	X16	Y16	Z16	X17	Y17	Z17	X18	Y18	Z18	X19	Y19	Z19	X20	Y20	Z20	X21	Y21	Z21	X22	Y22	Z22
1888	62.962509658476286	654.1458725719683	1246.676266699194	0.0	612.429974299672	1252.2569610151033	0.0	620.5797249182773	1371.018611886862	0.0	633.6354601066382	1440.5300603691865	0.0	629.0358768463029	1503.5379423690656	0.0	607.3378098631724	1488.3803360875565	0.0	634.4403929782629	1442.6193602828748	0.0	692.320970859549	1254.5842054136506	0.0	677.4015321875806	1400.9532072385264	0.0	662.6508365448259	1558.9239265517208	0.0	661.0419012440625	1631.8274362540417	0.0	685.113412963591	1626.837767523763	0.0	651.0748475456376	1575.3213450718654	0.0	673.011046461649	1037.782332192505	0.0	687.4195594288303	967.7249858595725	0.0	690.3001482038754	1059.0927422383927	0.0	591.4964881186744	1050.400011073887	0.0	553.9096319768776	1144.0352069384398	0.0	537.0012366265657	1238.2226714300748	0.0	750.0390295334337	1050.1809785379705	0.0	763.1677606410824	1135.867317358975	0.0	778.8044252690668	1211.4854093764188	0.0
1889	62.99585844537166	655.8930597738544	1251.0914082906322	0.0	612.5256896308539	1256.7160689329564	0.0	618.0325471117594	1375.2534554336837	0.0	631.1002721952233	1440.2000029593653	0.0	629.832465029568	1505.9036269137328	0.0	607.3758851032466	1491.858156575088	0.0	632.5822010311794	1439.6640365087385	0.0	694.4523772433795	1259.6468134748698	0.0	679.0985048530971	1408.6341399621374	0.0	662.419609953567	1564.8167000587732	0.0	659.3023868836126	1641.6257809726976	0.0	684.8170333747651	1637.0119729677342	0.0	650.4062638739508	1579.4330670422858	0.0	675.8412103299759	1042.5065986481986	0.0	690.9966381550612	971.6167276149141	0.0	693.9658212323723	1062.1086818152894	0.0	593.5926670976074	1053.9135147489765	0.0	555.7483109780173	1148.2736432309673	0.0	537.0141090560198	1243.1602171658758	0.0	753.869153997513	1053.4887819477624	0.0	766.0407250489859	1140.9018654899528	0.0	783.2701160193232	1219.0662225219944	0.0
1890	63.02920723226704	658.2978108051839	1254.7161106991352	0.0	612.6584721995606	1259.890974953445	0.0	614.5763082262229	1379.4327008645403	0.0	626.8990709141508	1439.471583723225	0.0	629.475989183043	1508.4638226078596	0.0	606.1104430195203	1496.1378805549755	0.0	630.4936045587219	1438.2412633539932	0.0	697.6763879850117	1263.9005197474771	0.0	681.5266340147448	1416.7975750122143	0.0	663.0260635348367	1568.7793369213362	0.0	658.4463147016812	1647.0054261322534	0.0	684.9099430502189	1641.6790073587413	0.0	650.575913504348	1581.1210707617136	0.0	678.0555000215213	1046.6848123998918	0.0	695.9235185764389	972.9291527869162	0.0	699.1695187716258	1064.0726187934533	0.0	595.304838750464	1055.8482008124101	0.0	556.9992987924594	1152.7205475237606	0.0	536.9814881804001	1247.9017717729803	0.0	757.7723551649558	1054.9913992839652	0.0	769.0237918253404	1144.89704109129	0.0	787.770081311521	1225.5242516474862	0.0
1891	63.06255601916242	659.7521632311881	1260.0514179050576	0.0	612.4392875323788	1264.1058650786258	0.0	611.0842944312299	1384.2271280035804	0.0	622.3911404966315	1439.3731422315038	0.0	626.9801317417564	1510.206762879632	0.0	603.2544305483809	1499.0761497582332	0.0	627.4271839216067	1437.5937877673075	0.0	700.4432953825933	1270.0914103088523	0.0	683.6290675724887	1426.0528635531443	0.0	663.6868934039894	1571.3355540289117	0.0	658.9805231386088	1650.1438125007114	0.0	685.1971343902347	1642.7082569923218	0.0	650.8508852168078	1582.2766194265196	0.0	680.4975233849636	1049.1421379390652	0.0	698.9083436606454	972.9199909699657	0.0	701.898406962901	1066.3252324147222	0.0	596.5061788824066	1058.4638203818433	0.0	557.5454320513968	1157.3116998621558	0.0	536.5543071447267	1251.3762852000368	0.0	761.0481026151332	1057.401129330764	0.0	772.2799344825894	1149.4243113027298	0.0	791.6680328593083	1231.021251584442	0.0
1892	63.0959048060578	660.9062951198075	1266.8590965113754	0.0	612.6175373454172	1269.1129035557576	0.0	608.7401300729914	1390.4533152936579	0.0	618.19130970449	1442.705730493869	0.0	622.7069183017204	1513.4793695629048	0.0	599.4632302379791	1502.5398984137491	0.0	623.4693748886502	1440.4875022788942	0.0	703.0116718013358	1276.900828466627	0.0	685.5714719252604	1433.9008052771885	0.0	663.9891536357648	1572.7729664798587	0.0	660.6719670251618	1651.2331161349891	0.0	685.7931952040699	1642.3140768694257	0.0	651.0979879789344	1583.7268471373698	0.0	682.5749310380776	1051.2260266732364	0.0	700.6679774997843	972.8546615777823	0.0	702.0691174879182	1069.9582295086782	0.0	597.4105180686083	1061.7654798041535	0.0	557.8758767012179	1161.107351986468	0.0	535.9745848115837	1254.0774109707725	0.0	763.8775162531774	1060.650446135015	0.0	776.1637941279797	1154.4069721736423	0.0	795.3853326548888	1236.124007388276	0.0
